<svg xmlns="http://www.w3.org/2000/svg" viewBox="0 0 240 160">
  <rect width="240" height="160" fill="#06120d"/>
  <text x="120" y="20" fill="#00ff95" font-family="sans-serif" font-size="13" font-weight="700" text-anchor="middle">DIRECT PRESSURE</text>
  <!-- limb -->
  <rect x="24" y="92" width="192" height="30" rx="15" fill="#13231c" stroke="#2f4438"/>
  <!-- wound -->
  <circle cx="120" cy="107" r="8" fill="#7a1f1f"/>
  <!-- hands pressing -->
  <path d="M120 95 C108 70 98 60 104 50 C110 56 114 60 118 64 C118 54 120 48 126 48 C130 56 128 64 130 70 C140 60 146 64 144 74 C150 72 154 78 150 86 C146 94 132 96 120 95 Z" fill="none" stroke="#00e0ff" stroke-width="3.5" stroke-linejoin="round"/>
  <text x="120" y="142" fill="#cfe" font-family="sans-serif" font-size="11" text-anchor="middle">Both hands, body weight, straight down</text>
  <text x="120" y="155" fill="#9bb" font-family="sans-serif" font-size="10" text-anchor="middle">hold continuously · don't keep checking</text>
</svg>
